<svg aria-hidden="true" style="position: absolute; width: 0; height: 0; overflow: hidden;" version="1.1" xmlns="http://www.w3.org/2000/svg" xmlns:xlink="http://www.w3.org/1999/xlink">
<defs>
<symbol id="arrow_drop_down" viewBox="0 0 32 32">
<title>arrow_drop_down</title>
<path d="M9.333 13.333l6.667 6.667 6.667-6.667h-13.333z"></path>
</symbol>
<symbol id="arrow_drop_up" viewBox="0 0 32 32">
<title>arrow_drop_up</title>
<path d="M22.667 20l-6.667-6.667-6.667 6.667h13.333z"></path>
</symbol>
<symbol id="check" viewBox="0 0 32 32">
<title>check</title>
<path d="M12 21.56l-5.56-5.56-1.893 1.88 7.453 7.453 16-16-1.88-1.88-14.12 14.107z"></path>
</symbol>
<symbol id="close" viewBox="0 0 32 32">
<title>close</title>
<path d="M25.333 8.547l-1.88-1.88-7.453 7.453-7.453-7.453-1.88 1.88 7.453 7.453-7.453 7.453 1.88 1.88 7.453-7.453 7.453 7.453 1.88-1.88-7.453-7.453 7.453-7.453z"></path>
</symbol>
<symbol id="bag" viewBox="0 0 25 32">
<title>Bag</title>
<path fill="#b9bdcf" style="fill: var(--color1, #b9bdcf)" d="M12.497 0.35c-2.825 0.083-5.131 2.234-5.458 4.997l-4.372 0.001c-1.473 0-2.667 1.194-2.667 2.667v21c0 1.473 1.194 2.667 2.667 2.667h20c1.473 0 2.667-1.194 2.667-2.667v-21l-0.003-0.133c-0.069-1.411-1.235-2.534-2.663-2.534l-4.373-0.001c-0.333-2.818-2.725-4.999-5.627-4.999l-0.17 0.003zM12.667 1.681c2.393 0 4.333 1.94 4.333 4.333 0 0.368 0.298 0.667 0.667 0.667h5c0.736 0 1.333 0.597 1.333 1.333v21c0 0.736-0.597 1.333-1.333 1.333h-20c-0.736 0-1.333-0.597-1.333-1.333v-21c0-0.736 0.597-1.333 1.333-1.333h5c0.368 0 0.667-0.298 0.667-0.667 0-2.393 1.94-4.333 4.333-4.333zM12.762 4.352l-0.096-0.004-0.096 0.004c-0.6 0.049-1.071 0.551-1.071 1.163 0 0.644 0.522 1.167 1.167 1.167s1.167-0.522 1.167-1.167c0-0.612-0.471-1.114-1.071-1.163z"></path>
</symbol>
<symbol id="search" viewBox="0 0 32 32">
<title>search</title>
<path d="M19.613 18.667h1.053l6.653 6.667-1.987 1.987-6.667-6.653v-1.053l-0.36-0.373c-1.52 1.307-3.493 2.093-5.64 2.093-4.787 0-8.667-3.88-8.667-8.667s3.88-8.667 8.667-8.667c4.787 0 8.667 3.88 8.667 8.667 0 2.147-0.787 4.12-2.093 5.64l0.373 0.36zM6.667 12.667c0 3.32 2.68 6 6 6s6-2.68 6-6c0-3.32-2.68-6-6-6s-6 2.68-6 6z"></path>
</symbol>
<symbol id="star" viewBox="0 0 32 32">
<title>star</title>
<path d="M16 23.027l8.24 4.973-2.187-9.373 7.28-6.307-9.587-0.813-3.747-8.84-3.747 8.84-9.587 0.813 7.28 6.307-2.187 9.373 8.24-4.973z"></path>
</symbol>
<symbol id="star_border" viewBox="0 0 32 32">
<title>star_border</title>
<path d="M19.747 11.493l9.587 0.827-7.267 6.307 2.173 9.373-8.24-4.973-8.24 4.973 2.187-9.373-7.28-6.307 9.587-0.813 3.747-8.84 3.747 8.827zM10.987 23.56l5.013-3.027 5.027 3.040-1.333-5.707 4.427-3.84-5.84-0.507-2.28-5.387-2.267 5.373-5.84 0.507 4.427 3.84-1.333 5.707z"></path>
</symbol>
</defs>
</svg>
